# xmcd
#
# Track frame offsets:
#	150
#	16196
#	39787
#	61913
#	96460
#	112804
#	130723
#	146082
#	164017
#
# Disc length: 2584 seconds
#
# Revision: 2
# Processed by: cddbd v1.4PL0 Copyright (c) Steve Scherf et al.
# Submitted via: MusicWizard 6.0.2
#
DISCID=700a1609
DTITLE=Billy Joel - The Stranger
DYEAR=1900
DGENRE=Pop
TTITLE0=Movin' Out
TTITLE1=The Stranger
TTITLE2=Just The Way You Are
TTITLE3=Scenes From An Italian Restauranet
TTITLE4=Vienna
TTITLE5=Only The Good Die Young
TTITLE6=She's Always A Woman
TTITLE7=Get It Right The First Time
TTITLE8=Everybody Has A Dream
EXTD=
EXTT0=
EXTT1=
EXTT2=
EXTT3=
EXTT4=
EXTT5=
EXTT6=
EXTT7=
EXTT8=
PLAYORDER=
